{"title":"Click - A 'Nam War Flick (2003) DVDRip - RadioResearch","uid":8457824,"size":810915975,"categoryP":"video","categoryS":"movies","magnet":"?xt=urn:btih:6249aec86a2e6b0f7203ae7f45eb11c4393dfcdf&amp;dn=Click+-+A+%27Nam+War+Flick+%282003%29+DVDRip+-+RadioResearch&amp;tr=udp%3A%2F%2Ftracker.openbittorrent.com%3A80&amp;tr=udp%3A%2F%2Fopen.demonii.com%3A1337&amp;tr=udp%3A%2F%2Ftracker.coppersurfer.tk%3A6969&amp;tr=udp%3A%2F%2Fexodus.desync.com%3A6969","seeders":0,"leechers":0,"uploader":"RadioResearch","files":3,"time":1368145845,"description":"*******************************************************************************\n            Click - A 'Nam War Flick (2003) DVDRip - RadioResearch\n*******************************************************************************\n\n-------------------------------------------------------------------------------\n                              General Information\n-------------------------------------------------------------------------------\nType.................: Movie\n\n\n\nVideo Format.........: AVI\nVideo Bitrate........: 1445\nResolution...........: 640 x 480\nColor................: 8 bit\nFPS..................: 29.970\nSource...............: DVD 4x3\nOriginal Format......: NTSC\nGenre................: War\nIMDb Rating..........: 6.2\nMovie Information....: http://www.imdb.com/title/tt0372214/\n\n-------------------------------------------------------------------------------\n                               Post Information\n-------------------------------------------------------------------------------\nPosted by............: RadioResearch\nPosted on............: 5/9/2013\n\n-------------------------------------------------------------------------------\n                                 Release Notes\n-------------------------------------------------------------------------------\nSEEDBOX SUPPORTED!!\n\nFrom four-time award winning Director and Cinematographer Steven Kahler comes \nthe story of three people caught up in the turmoil of the Vietnam War.  When \nC.J. Parker steps on a landmine known as a &quot;bouncing betty&quot; that will only \nexplode when he steps off, his only hope of rescue is a Eurasian prostitute, \nMartha, and Special Forces Green Beret Sarge, whose team is walking into a Viet \nCong ambush.\n\nYou won't find this anywhere on the 'Net.  It's filmed in the same realistic \nlook and feel of 84 Charlie Mopic.  If you're looking for multimillion dollar \npyrotechnics and special effects, look elsewhere.  This is a good war flick, and \nI hope you take the time to enjoy it.  The weapons and clothing are all vintage \nand the jargon and radio comms add a lot of realism as well.\n\nEnjoy!\n\nRadioResearch\n\nGeneral\nComplete name                            : G:Click - A 'Nam War Flick (2003) \nDVDRip - RadioResearchCLICK-{RadioResearch}.avi\nFormat                                   : AVI\nFormat/Info                              : Audio Video Interleave\nFile size                                : 773 MiB\nDuration                                 : 1h 14mn\nOverall bit rate                         : 1 445 Kbps\nMovie name                               : CLICK_NEW_WORKS.Title2.DVDRip\nWriting application                      : Lavf53.32.100\nOriginal source form/Name                : CLICK_NEW_WORKS\n\nVideo\nID                                       : 0\nFormat                                   : MPEG-4 Visual\nFormat profile                           : Advanced Simple@L5\nFormat settings, BVOP                    : 2\nFormat settings, QPel                    : No\nFormat settings, GMC                     : No warppoints\nFormat settings, Matrix                  : Default (H.263)\nMuxing mode                              : Packed bitstream\nCodec ID                                 : XVID\nCodec ID/Hint                            : XviD\nDuration                                 : 1h 14mn\nBit rate                                 : 1 369 Kbps\nWidth                                    : 640 pixels\nHeight                                   : 480 pixels\nDisplay aspect ratio                     : 4:3\nFrame rate                               : 29.970 fps\nColor space                              : YUV\nChroma subsampling                       : 4:2:0\nBit depth                                : 8 bits\nScan type                                : Progressive\nCompression mode                         : Lossy\nBits/(Pixel*Frame)                       : 0.149\nStream size                              : 733 MiB (95%)\nWriting library                          : XviD 64\n\nAudio\nID                                       : 1\nFormat                                   : AC-3\nFormat/Info                              : Audio Coding 3\nMode extension                           : CM (complete main)\nFormat settings, Endianness              : Big\nCodec ID                                 : 2000\nDuration                                 : 1h 14mn\nBit rate mode                            : Constant\nBit rate                                 : 64.0 Kbps\nChannel(s)                               : 2 channels\nChannel positions                        : Front: L R\nSampling rate                            : 48.0 KHz\nBit depth                                : 16 bits\nCompression mode                         : Lossy\nStream size                              : 34.2 MiB (4%)\nAlignment                                : Aligned on interleaves\nInterleave, duration                     : 32 ms (0.96 video frame)\n\nAVI FILE MD5 HASH  028d73f6c07085cc9226416ac3442590\n\n\n\n-------------------------------------------------------------------------------\nGenerated with Cool NFO Creator - http://fly.to/coolbeans\n-------------------------------------------------------------------------------\n","torrent":{"xt":"urn:btih:6249aec86a2e6b0f7203ae7f45eb11c4393dfcdf","amp;dn":"Click+-+A+%27Nam+War+Flick+%282003%29+DVDRip+-+RadioResearch","amp;tr":["udp%3A%2F%2Ftracker.openbittorrent.com%3A80","udp%3A%2F%2Fopen.demonii.com%3A1337","udp%3A%2F%2Ftracker.coppersurfer.tk%3A6969","udp%3A%2F%2Fexodus.desync.com%3A6969"],"infoHash":"6249aec86a2e6b0f7203ae7f45eb11c4393dfcdf","infoHashBuffer":{"type":"Buffer","data":[98,73,174,200,106,46,107,15,114,3,174,127,69,235,17,196,57,61,252,223]},"announce":[],"urlList":[]}}